/* XPM */
static char *f3f4f7a38627473da348c748930b3cec[] = {
/* columns rows colors chars-per-pixel */
"64 64 24 1 ",
"  c black",
". c #202020",
"1 c #ff0000",
"2 c #00ff00",
"3 c #0000ff",
"0 c #000000",
"X c #2C2C2C",
"o c gray22",
"O c #000040",
"+ c #00004C",
"@ c #000058",
"# c #000064",
"$ c #000070",
"% c #00007C",
"& c gray33",
"* c #000088",
"= c #000098",
"- c #0000A4",
"; c #0000B0",
": c #0000BC",
"> c #0000C8",
", c #0000D4",
"< c #0000E0",
"9 c #4040FC",
/* pixels */
"0000000000000000000000000000000011111111111111111111111111111111",
"0000000000000000000000000000000011111111111111111111111111111111",
"0000000000000000000000000000000011111111111111111111111111111111",
"0000000000000000000000000000000011111111111111111111111111111111",
"0000000000000000000000000000000011111111111111111111111111111111",
"0000000000000000000000000000000011111111111111111111111111111111",
"0000000000000000000000000000000011111111111111111111111111111111",
"0000000000000000000000000000000011111111111111111111111111111111",
"0000000000000000000000000000000011111111111111111111111111111111",
"0000000000000000000000000000000011111111111111111111111111111111",
"0000000000000000000000000000000011111111111111111111111111111111",
"0000000000000000000000000000000011111111111111111111111111111111",
"0000000000000000000000000000000011111111111111111111111111111111",
"0000000000000000000000000000000011111111111111111111111111111111",
"0000000000000000000000000000000011111111111111111111111111111111",
"0000000000000000000000000000000011111111111111111111111111111111",
"0000000000000000000000000000000011111111111111111111111111111111",
"0000000000000000000000000000000011111111111111111111111111111111",
"0000000000000000000000000000000011111111111111111111111111111111",
"0000000000000000000000000000000011111111111111111111111111111111",
"0000000000000000000000000000000011111111111111111111111111111111",
"0000000000000000000000000000000011111111111111111111111111111111",
"0000000000000000000000000000000011111111111111111111111111111111",
"0000000000000000000000000000000011111111111111111111111111111111",
"0000000000000000000000000000000011111111111111111111111111111111",
"0000000000000000000000000000000011111111111111111111111111111111",
"0000000000000000000000000000000011111111111111111111111111111111",
"0000000000000000000000000000000011111111111111111111111111111111",
"0000000000000000000000000000000011111111111111111111111111111111",
"0000000000000000000000000000000011111111111111111111111111111111",
"0000000000000000000000000000000011111111111111111111111111111111",
"0000000000000000000000000000000011111111111111111111111111111111",
"2222222222222222222222222222222233333333333333333333333333333333",
"2222222222222222222222222222222233333333333333333333333333333333",
"2222222222222222222222222222222233333333333333333333333333333333",
"2222222222222222222222222222222233333333333333333333333333333333",
"2222222222222222222222222222222233333333333333333333333333333333",
"2222222222222222222222222222222233333333333333333333333333333333",
"2222222222222222222222222222222233333333333333333333333333333333",
"2222222222222222222222222222222233333333333333333333333333333333",
"2222222222222222222222222222222233333333333333333333333333333333",
"2222222222222222222222222222222233333333333333333333333333333333",
"2222222222222222222222222222222233333333333333333333333333333333",
"2222222222222222222222222222222233333333333333333333333333333333",
"2222222222222222222222222222222233333333333333333333333333333333",
"2222222222222222222222222222222233333333333333333333333333333333",
"2222222222222222222222222222222233333333333333333333333333333333",
"2222222222222222222222222222222233333333333333333333333333333333",
"2222222222222222222222222222222233333333333333333333333333333333",
"2222222222222222222222222222222233333333333333333333333333333333",
"2222222222222222222222222222222233333333333333333333333333333333",
"2222222222222222222222222222222233333333333333333333333333333333",
"2222222222222222222222222222222233333333333333333333333333333333",
"2222222222222222222222222222222233333333333333333333333333333333",
"2222222222222222222222222222222233333333333333333333333333333333",
"2222222222222222222222222222222233333333333333333333333333333333",
"2222222222222222222222222222222233333333333333333333333333333333",
"2222222222222222222222222222222233333333333333333333333333333333",
"2222222222222222222222222222222233333333333333333333333333333333",
"2222222222222222222222222222222233333333333333333333333333333333",
"2222222222222222222222222222222233333333333333333333333333333333",
"2222222222222222222222222222222233333333333333333333333333333333",
"2222222222222222222222222222222233333333333333333333333333333333",
"2222222222222222222222222222222233333333333333333333333333333333"
};
