/* XPM */
static char *ea[] = {
/* columns rows colors chars-per-pixel */
"40 40 213 2 ",
"   c #101010",
".  c #111111",
"X  c #131313",
"o  c gray8",
"O  c #151515",
"+  c #161616",
"@  c gray9",
"#  c #181818",
"$  c #191919",
"%  c #1B1B1B",
"&  c #1D1D1D",
"*  c #202020",
"=  c gray13",
"-  c #252525",
";  c gray15",
":  c #272727",
">  c #282828",
",  c gray16",
"<  c #2A2A2A",
"1  c gray17",
"2  c #2D2D2D",
"3  c #2F2F2F",
"4  c gray19",
"5  c gray20",
"6  c #353535",
"7  c #373737",
"8  c gray22",
"9  c #393939",
"0  c #3A3A3A",
"q  c gray23",
"w  c #3C3C3C",
"e  c #3E3E3E",
"r  c #3F3F3F",
"t  c gray25",
"y  c #414141",
"u  c gray26",
"i  c #434343",
"p  c #444444",
"a  c gray27",
"s  c #464646",
"d  c gray28",
"f  c #484848",
"g  c #494949",
"h  c gray29",
"j  c #4C4C4C",
"k  c gray30",
"l  c #4E4E4E",
"z  c gray31",
"x  c #515151",
"c  c gray33",
"v  c #555555",
"b  c #565656",
"n  c gray34",
"m  c gray35",
"M  c #5A5A5A",
"N  c #5B5B5B",
"B  c gray36",
"V  c #5D5D5D",
"C  c gray37",
"Z  c #5F5F5F",
"A  c #606060",
"S  c gray38",
"D  c #626262",
"F  c gray39",
"G  c #646464",
"H  c #656565",
"J  c gray40",
"K  c #676767",
"L  c #686868",
"P  c DimGray",
"I  c #6A6A6A",
"U  c gray42",
"Y  c #6C6C6C",
"T  c #6D6D6D",
"R  c gray43",
"E  c #6F6F6F",
"W  c gray44",
"Q  c #717171",
"!  c #727272",
"~  c gray45",
"^  c #747474",
"/  c gray46",
"(  c #767676",
")  c #777777",
"_  c gray47",
"`  c #797979",
"'  c gray48",
"]  c #7B7B7B",
"[  c #7C7C7C",
"{  c gray49",
"}  c #7E7E7E",
"|  c gray50",
" . c #808080",
".. c #818181",
"X. c gray51",
"o. c #838383",
"O. c #848484",
"+. c gray52",
"@. c #868686",
"#. c gray53",
"$. c #888888",
"%. c #898989",
"&. c gray54",
"*. c #8B8B8B",
"=. c gray55",
"-. c #8D8D8D",
";. c #8E8E8E",
":. c gray56",
">. c #909090",
",. c gray57",
"<. c #929292",
"1. c #939393",
"2. c gray58",
"3. c #959595",
"4. c gray59",
"5. c #979797",
"6. c #989898",
"7. c gray60",
"8. c #9A9A9A",
"9. c #9B9B9B",
"0. c gray61",
"q. c #9D9D9D",
"w. c gray62",
"e. c #9F9F9F",
"r. c #A0A0A0",
"t. c gray63",
"y. c #A2A2A2",
"u. c gray64",
"i. c #A4A4A4",
"p. c #A5A5A5",
"a. c gray65",
"s. c #A7A7A7",
"d. c gray66",
"f. c #A9A9A9",
"g. c #AAAAAA",
"h. c gray67",
"j. c #ACACAC",
"k. c gray68",
"l. c #AEAEAE",
"z. c #AFAFAF",
"x. c gray69",
"c. c #B1B1B1",
"v. c #B2B2B2",
"b. c gray70",
"n. c #B4B4B4",
"m. c gray71",
"M. c #B6B6B6",
"N. c #B7B7B7",
"B. c gray72",
"V. c #B9B9B9",
"C. c gray73",
"Z. c #BBBBBB",
"A. c #BCBCBC",
"S. c gray74",
"D. c gray",
"F. c gray75",
"G. c #C0C0C0",
"H. c #C1C1C1",
"J. c gray76",
"K. c #C3C3C3",
"L. c gray77",
"P. c #C5C5C5",
"I. c #C6C6C6",
"U. c gray78",
"Y. c #C8C8C8",
"T. c gray79",
"R. c #CACACA",
"E. c #CBCBCB",
"W. c gray80",
"Q. c #CDCDCD",
"!. c #CECECE",
"~. c gray81",
"^. c #D0D0D0",
"/. c gray82",
"(. c #D2D2D2",
"). c LightGray",
"_. c gray83",
"`. c #D5D5D5",
"'. c gray84",
"]. c #D7D7D7",
"[. c #D8D8D8",
"{. c gray85",
"}. c #DADADA",
"|. c gray86",
" X c gainsboro",
".X c #DDDDDD",
"XX c gray87",
"oX c #DFDFDF",
"OX c gray88",
"+X c #E1E1E1",
"@X c #E2E2E2",
"#X c gray89",
"$X c #E4E4E4",
"%X c gray90",
"&X c #E6E6E6",
"*X c #E7E7E7",
"=X c gray91",
"-X c #E9E9E9",
";X c #EAEAEA",
":X c gray92",
">X c #ECECEC",
",X c gray93",
"<X c #EEEEEE",
"1X c #EFEFEF",
"2X c gray94",
"3X c #F1F1F1",
"4X c gray95",
"5X c #F3F3F3",
"6X c #F4F4F4",
"7X c gray96",
"8X c #F6F6F6",
"9X c gray97",
"0X c #F9F9F9",
/* pixels */
"$.O./ B h v ` 8.T.#X7X1X&X-X<X<XoX).F.h.m..XoXN.-.*.Z.=XT.3.8.A.6XM.;.*.&.#.+.{ ",
"#.o./ V k n _ 4.Q.&X9X4X-X>X1X>X+X].U.m.A..X|.v.>.;.D.:XW.7.q.S.4Xm.;.=.*.&.*.O.",
";.$._ D v Z { 5.~.*X9X5X,X2X3X>X-X+X[.Q.!.#X{.z.2.1.J.,X~.w.t.D.3Xm.;.=.-.;.1.:.",
"w.1.| P A T $.e.W.@X4X2X<X6X6X,X4X>X>X*X$X;X{.x.7.7.P.<X/.u.p.G.4Xm.:.-.-.<.8.8.",
"l.w.@.! T ] 1.a.P.[.%X&X:X7X8X1X2X-X,X<X&X$X/.l.t.r.R.<X).f.j.L.3Xm.:.-.;.3.y.a.",
"V.d.,. .| =.q.f.S.W.].[.+X2X5X>X&X[.].].Q.R.H.g.k.h.^.2X'.c.M.W.;Xx.*.&.-.7.j.n.",
"K.n.y.7.9.u.f.j.V.L.R.E.'.=X>X%X.XL.B.b.d.h.v.g.Z.N.].5X}.C.H.].OXs.+.#.;.w.N.K.",
"R.F.v.l.c.m.n.x.B.H.L.K.!.+X&XoX}.V.i.7.;.5.g.l.L.F..X8XXXG.T.oX[.r. .O.;.y.F.Q.",
"'.E.K.I.E.Y.S.b.Z.b.z.B.W.|.OXXXP.g.$.~ E { 7.c.U.E..X<X%X(.].,XE.7.' { $.a.!.@X",
"*XXX].{..X[.R.D.n.h.a.x.K.).{.[.Z.0./ C N R ,.z.R.^.+X2X=X].}.>XL.<./ ' %.h._.=X",
"5X,X-X;X,X*X'.I.k.i.e.d.A.Q.).(.c.=.V y y V *.x.^.].*X4X>XXXXX;XZ.*.R / &.v. X,X",
"<X,X:X,X3X,X{.P.h.y.q.a.V.R.^.~.g.| g , 1 z $.m.`.oX,X6X1X&X#X*XM.@.P W &.N.+X<X",
"OX#X%X=X<X,X}.K.f.t.q.a.V.Y.W.R.p.( q @ % a +.M.].$X2X5X3X<X=X@Xm.+.J Y %.Z.@X;X",
"[.oX@X$X>X2XXXP.d.t.e.f.C.U.U.K.t.Q 6   o r ..n.'.%X2X3X4X6X:XXXn.O.F L $.S.#X&X",
"[.OX#X#X>X4X+XU.j.a.a.c.H.E.Y.H.i.^ 9 o # u o.m.).%X1X,X3X9X,X}.v.X.A H $.G.%X$X",
"}.@X$X@X:X4X@XU.v.k.l.C.R./.W.K.f.] t & * g $.B./.$X<X:X2X0X<X[.z. .C F $.K.*X%X",
".X#X@XOX*X1X$X~.V.M.B.H.Q._.(.Q.d...j < 3 n *.k.E.!.oX-X%X=X#XQ.9.) n B ..z.].<X",
"%X-X&XOX&X2X;X{.R.U.U.Q.'.}.].(.m.,.S u a J >.j.K.K.(..X X+X}.K.3.Q x b ] g._.,X",
"<X3X;XOX#X2X3X&XOX.X|.XX$X%X+X.XG.y.` A D ] 6.j.B.n.F.R.Q.`.!.n.=.L f j Q u.^.>X",
"4X6X:X.XXX:X3X>X,X;X-X;X,X<X>X-XT.x.>.{ | :.t.h.l.p.j.N.S.Y.H.a.X.Z r i K 8.R.-X",
",X4X;X}.'.@X-X&X;X-X-X;X<X2X3X2X.XU.k.q.q.y.a.a.u.6.q.a.j.B.b.7.) v 7 0 C ,.K.#X",
"#X>X-X{./.[. X{.|.|..XOX$X=X>X<X3X+X!.K.F.B.g.w.2.*.:.3.5.y.t.*.I h 3 5 v #.V.{.",
"[.*X;X|.^./.^.R.T.E.!./.`.|.+X%X3X;X$X@XXXQ.c.9.O.{ ..O...=.;.{ V t ; 1 j [ k.Q.",
"(.$X:X.X^.Q.T.H.D.G.K.U.E./.[..X%X%X;X4X3X XB.9.` ^ _ ` ~ [ ..! v 9 = ; d / p.P.",
"J.OX,X{.I.U.L.B.M.m.N.S.I.Q.^./.W./.'.`.XX<XW.$.! I W ~ I Y E H j 1 $ # a ( 2.Y.",
"P.#X2X}.L.G.A.c.z.z.c.N.G.U.E.W.P.U.R.U.).*XE.&.U S J P S G P Z g : O X r W =.G.",
"K.+X1X|.J.C.M.l.h.g.k.b.A.L.T.R.G.G.G.S.R.#XW.;.J N C S M C F m d - X . w Y #.C.",
"D. X>X XI.A.N.c.h.h.k.n.S.I.R.E.J.H.G.S.R.$X!.,.P B V A M Z G m f : O o e T $.Z.",
"G.{.;XOXQ.J.C.b.k.j.l.m.D.I.R.E.K.K.K.F.W.$XW.;.T Z A G A J P B g > @ + t R $.C.",
"L.].*X$X{.!.J.B.z.l.x.m.D.P.Y.T.L.K.J.S.T.+XT.*.T A G Y Y ~ / J l 2 % $ y Y O.m.",
"F.!.XX&X*X+X_.Y.M.m.M.C.J.Y.E.E.Y.P.G.B.L.OXW.<.T D I ` } $.%.' N 9 - * a T ..x.",
"n.J.`.&X3X4X&X}.S.A.S.H.Y.Q.^.^.!.Y.F.M.K.@X).0.E J ! O.-.7.9.*.P s 4 > h E X.x.",
"z.m.L.(.[.}.#X2X/.J.C.H.Y.Y.E./.^.H.H.S.S.}.'.t.) U ( ;.i.N.b.8.] c 8 y n Y %.a.",
"h.z.B.H.P.T.].&X}.R.G.L.W.!.~.).~.G.F.Z.Z.}.].u.[ E } w.N.T.Y.b.*.D p g N T @.r.",
"a.p.s.g.h.x.J.'.%X`.Y.R.(.`.`.`.~.F.S.B.V.}.{.a.o./ &.m.^.oXOX(.t.( c v F R X.6.",
"w.0.9.7.3.7.k.K.:X.X/./.].|.{.'.^.F.Z.M.N.{.|.g.%.] 4.T.@X*X-X%Xm.$.F A I W } :.",
"5.2.,.=.O.@.9.v.-X@X}.[. XoX.X[._.H.A.n.M.{.XXl.-.| r.[.&X XXX%XP.4.R P Q ~ ] %.",
",.-.#.{ ! ^ =.a.+X%X%X+XOX#X@XXX}.P.S.n.m.}.OXc.:.X.f.@XOXL.U.}.(.t._ ! ) ( ` O.",
"-.@.' U C F  .w.{.*X1X:X%X*X*X%XOXR.G.m.m.}.+Xb.:.+.c.=X{.l.c.~.oXk.X.' { ` _ | ",
"*...Q C z n ` 9._.=X8X3X-X-X>X:X$XQ.H.m.m.|.@Xm.:.#.M.,X`.t.p.R.-XM.%.| ..' ) { "
};
