/* XPM */
static char *no[] = {
/* columns rows colors chars-per-pixel */
"40 40 111 2 ",
"   c black",
".  c #010101",
"X  c #020202",
"o  c gray1",
"O  c #040404",
"+  c gray2",
"@  c #070707",
"#  c gray3",
"$  c #090909",
"%  c gray4",
"&  c gray5",
"*  c #0E0E0E",
"=  c gray6",
"-  c #101010",
";  c #111111",
":  c #131313",
">  c gray8",
",  c #151515",
"<  c #181818",
"1  c #191919",
"2  c gray10",
"3  c #1B1B1B",
"4  c gray11",
"5  c #1D1D1D",
"6  c #1E1E1E",
"7  c #202020",
"8  c gray13",
"9  c #222222",
"0  c #232323",
"q  c gray14",
"w  c #252525",
"e  c #242625",
"r  c gray15",
"t  c #262827",
"y  c #282828",
"u  c #282A29",
"i  c #2A2A2A",
"p  c gray17",
"a  c #2C2C2C",
"s  c #2D2D2D",
"d  c gray18",
"f  c #2F2F2F",
"g  c #2E302F",
"h  c #2F3130",
"j  c gray19",
"k  c #313131",
"l  c #323232",
"z  c gray20",
"x  c #343434",
"c  c #353535",
"v  c gray21",
"b  c #373737",
"n  c gray22",
"m  c #393939",
"M  c #383A39",
"N  c #3A3A3A",
"B  c gray23",
"V  c #3A3C3B",
"C  c #3C3C3C",
"Z  c gray24",
"A  c #3E3E3E",
"S  c #3F3F3F",
"D  c gray25",
"F  c #414141",
"G  c gray26",
"H  c #434343",
"J  c #424443",
"K  c #434544",
"L  c #444444",
"P  c gray27",
"I  c #444645",
"U  c #464646",
"Y  c gray28",
"T  c #474948",
"R  c #484848",
"E  c #494949",
"W  c #484A49",
"Q  c #494B4A",
"!  c gray29",
"~  c #4B4B4B",
"^  c #4A4C4B",
"/  c #4B4D4C",
"(  c #4C4C4C",
")  c gray30",
"_  c #4C4E4D",
"`  c #4E4E4E",
"'  c gray31",
"]  c #505050",
"[  c #515151",
"{  c gray32",
"}  c #535353",
"|  c gray33",
" . c #555555",
".. c #565656",
"X. c gray34",
"o. c #585858",
"O. c gray35",
"+. c #5A5A5A",
"@. c #5B5B5B",
"#. c gray36",
"$. c #5D5D5D",
"%. c gray37",
"&. c #5F5F5F",
"*. c #606060",
"=. c gray38",
"-. c #626262",
";. c gray39",
":. c #646464",
">. c #656565",
",. c gray40",
"<. c #686868",
/* pixels */
"l c m A G U U H G Y ] X.+...~ C d i p j l x C D n s 4 = & , w c K / ' [ ] ! F n ",
"m B G ~ {  .| [ ~ ] X.$.-.-. .G d q 9 w s v C G G A z y 9 0 s N I ^ ` [ } ' R D ",
"P F U [ @.*.&.@.X.o.#.&.;.=.| A r < - , 8 j m Y ~ ( U B l d l B K W ` | +.O. .` ",
"` L F ! ..*.-.=.$.#.$.*.=.+.! z 4 # . @ , w c H ( ] ) P B l f x V J ( ..&.:.;.#.",
"` A z c D ` o.%.*.%.$.%.%. .L s > . N 1 & 7 k C U ! ! L N d y i h M L [ #.,.<.=.",
"U k 6 2 9 l L { @.$.$.#.+.[ G d 1 #   o * 5 s C G L L S v p q 0 t g m U } $.=.+.",
"B w * + % 2 f G ` X.+.+.X.` G l 9 < ; : 3 w l m Z F P H Z l y 0 e u j B P ` { ) ",
"b q *   X = 0 b R [  .| { ~ H v f r w y d z N Z A H ! ) ! H n f u u a z n A L F ",
"n s 4 = & , w c K _ ] { [ E F b l c m Z G U Y L H Y ] X.+...! B d i i j l c C D ",
"G A z y 9 0 s N I Q ( ] { ' R F m B G ~ {  .| [ ( ] X.$.;.=. .G d q 9 w s c C G ",
"~ ( U B l d l B K T ` } O.+.| ` L F U { #.*.%.+.X.o.@.&.;.=.| S r < ; , 7 f m Y ",
"( ] ) P B l f x V J ) X.&.:.-.#.` L F ! ..*.-.=.$.@.$.*.=.+.! z 3 $ X @ , q c H ",
"U ! ! L N d y i g M L { $.>.<.=.` A z c S ` o.%.*.%.#.%.%. .L d ,   N 1 & 7 k C ",
"G L L S v p q 0 t g n U } $.-.O.Y k 6 1 9 l L } @.$.#.#.+.] G f 1 #   o * 6 s B ",
"Z F P H Z l y 0 e u f B P ` { ( B w * O % 2 f G ` X.+.@.X.` G l 9 < ; : 3 w l m ",
"A H ! ) ! H n f u u d x n S H F b q *   X - 0 b E [  . .{ ! G v f r w y d z N Z ",
"G Y ' X.+. .~ C d i p j l x C D n s 4 = & , w c K _ ] { [ E F b l c m A G U U H ",
"( ] ..$.;.=...G d q 9 w s v C G G A z y 9 0 s N I Q ( ] { ' R F m B G ~ {  .| [ ",
"X.o.+.%.;.=.} A r < - , 8 j m Y ~ ( U B l d l B K T ` } O.+.| ` P F U [ @.*.&.@.",
"%.#.$.*.-.@.! z 4 # . @ , w c H ( ] ) P B l f x V J ) X.&.:.-.#.` L F ! ..*.-.=.",
"=.%.#.%.%. .H s > . N 1 & 7 k C U ! ! L N d y i g M L { $.>.<.=.` A z c D ` o.%.",
"#.$.$.$.+.[ G f 1 #   o * 5 s C G L L S v p q 0 t g n U } $.-.O.U k 6 2 9 l L { ",
"` ..@.@.X.) F z 9 < ; : 3 w l m Z F P H Z l y 0 e u f B P ` { ( B w * + % 2 f G ",
"R [ .. .{ ! G n f r w y d z N Z A H ! ) ! H n f u u d x n S H F b q *   X = 0 b ",
"K / ' [ ] ! F n l c m Z G U Y L G Y ] X.+...~ C d i p j l x C D n s 4 = & , w c ",
"I ^ ` [ } ' R D m B G ~ {  .| [ ~ ] X.$.-.-. .G d q 9 w s v C G G A z y 9 0 s N ",
"K W ` | +.O. .` L F U { #.*.%.+.X.o.#.&.;.=.| A r < - , 8 j m Y ~ ( U B l d l B ",
"V J ( ..&.:.;.#.` L F ! ..*.-.=.$.#.$.*.=.+.! z 4 # . @ , w c H ( ] ) P B l f x ",
"h M L [ #.,.<.=.` A z c S ` o.%.*.%.$.%.%. .L s > . N 1 & 7 k C U ! ! L N d y i ",
"t g m U } $.=.+.Y k 6 1 9 l L } @.$.$.#.+.[ G d 1 #   o * 5 s C G L L S v p q 0 ",
"e u j B P ` { ) B w * O % 2 f G ` X.+.+.X.` G l 9 < ; : 3 w l m Z F P H Z l y 0 ",
"u u a z n A L F b q *   X - 0 b R [  .| { ~ H v f r w y d z N Z A H ! ) ! H n f ",
"d i p j l x C D n s 4 = & , w c K _ ] { [ E F b l c m A G U U H H Y ] X.+...! B ",
"d q 9 w s v C G G A z y 9 0 s N I Q ( ] { ' R F m B G ~ {  .| [ ( ] X.$.;.-. .G ",
"r < - , 8 j m Y ~ ( U B l d l B K T ` } O.+.| ` P F U [ @.*.&.@.X.o.@.%.;.=.} A ",
"4 # . @ , w c H ( ] ) P B l f x V J ) X.&.:.-.#.` L F ! ..*.-.=.$.#.#.*.-.@.! z ",
"> . N 1 & 7 k C U ! ! L N d y i g M L { $.>.<.=.` A z c D ` o.%.*.$.#.%.%. .L s ",
"1 #   o * 5 s C G L L S v p q 0 t g n U } $.-.O.U k 6 2 9 l L { #.$.$.$.+.[ G f ",
"9 < ; : 3 w l m Z F P H Z l y 0 e u f B P ` { ( B w * + % 2 f G ` ..@.@.X.) G z ",
"f r w y d z N Z A H ! ) ! H n f u u d x n S H F b q *   X = 0 b R { .. .{ E G b "
};
