/* XPM */
static char *so[] = {
/* columns rows colors chars-per-pixel */
"40 40 209 2 ",
"   c #0B0603",
".  c #0D0808",
"X  c #0C0C04",
"o  c #140402",
"O  c #1A0202",
"+  c #1B0C05",
"@  c #150E0C",
"#  c #1C0E0B",
"$  c #15100D",
"%  c #1D100F",
"&  c #1A1307",
"*  c #1A0E11",
"=  c #141110",
"-  c #1D1613",
";  c #1E1914",
":  c #1C1A19",
">  c #210B03",
",  c #210C0B",
"<  c #24160E",
"1  c #2B160E",
"2  c #22190D",
"3  c #2A190C",
"4  c #271506",
"5  c #34190B",
"6  c #231613",
"7  c #291613",
"8  c #251915",
"9  c #2B1B15",
"0  c #241618",
"q  c #2A1718",
"w  c #251C19",
"e  c #2C1D1B",
"r  c #321E15",
"t  c #3B1D14",
"y  c #321E1B",
"u  c #3C1F19",
"i  c #2B2115",
"p  c #232119",
"a  c #2C211C",
"s  c #322214",
"d  c #3D2016",
"f  c #32211C",
"g  c #3E261E",
"h  c #35291B",
"j  c #3B291D",
"k  c #331F20",
"l  c #2B2121",
"z  c #332221",
"x  c #3A2623",
"c  c #352924",
"v  c #3B2A24",
"b  c #342C28",
"n  c #3B2B2A",
"m  c #3D322C",
"M  c #3E3322",
"N  c #393532",
"B  c #42280F",
"V  c #43261D",
"C  c #44291C",
"Z  c #472819",
"A  c #4D311E",
"S  c #532214",
"D  c #432620",
"F  c #402A24",
"G  c #4A2C22",
"H  c #432E2B",
"J  c #4D3124",
"K  c #43322C",
"L  c #4A322B",
"P  c #46372A",
"I  c #563A2B",
"U  c #5C3B2B",
"Y  c #573726",
"T  c #422F32",
"R  c #443232",
"E  c #4B3C36",
"W  c #513C34",
"Q  c #5A3B33",
"!  c #563E3A",
"~  c #673D2B",
"^  c #5F402B",
"/  c #5E4233",
"(  c #5B433A",
")  c #57483E",
"_  c #624233",
"`  c #6C4A34",
"'  c #654A3B",
"]  c #6A4A3C",
"[  c #654538",
"{  c #6E533B",
"}  c #72523E",
"|  c #725533",
" . c #6E4B32",
".. c #564743",
"X. c #5A5044",
"o. c #624D44",
"O. c #6A4943",
"+. c #6F5242",
"@. c #6C544C",
"#. c #655548",
"$. c #735443",
"%. c #755941",
"&. c #7A5B45",
"*. c #7B5A4A",
"=. c #76574A",
"-. c #795B52",
";. c #735E5D",
":. c #645653",
">. c #7E6346",
",. c #7D614A",
"<. c #7F6256",
"1. c #7D6A64",
"2. c #82663F",
"3. c #825F4E",
"4. c #826246",
"5. c #83624B",
"6. c #86694C",
"7. c #8A6A4E",
"8. c #97664A",
"9. c #8F714D",
"0. c #91764D",
"q. c #836252",
"w. c #856952",
"e. c #8A6953",
"r. c #866B5C",
"t. c #8B695A",
"y. c #886458",
"u. c #8E725B",
"i. c #8F7457",
"p. c #947355",
"a. c #977C57",
"s. c #997C56",
"d. c #94735B",
"f. c #977A5D",
"g. c #9B7B5C",
"h. c #9B7753",
"j. c #A66957",
"k. c #8E7263",
"l. c #9B7B63",
"z. c #977866",
"x. c #8C7470",
"c. c #A27F6D",
"v. c #A77F73",
"b. c #A3825E",
"n. c #AD8A5E",
"m. c #A28654",
"M. c #9F8264",
"N. c #9E8368",
"B. c #A38363",
"V. c #AB8B65",
"C. c #A3826A",
"Z. c #A68C6B",
"A. c #AB8B6B",
"S. c #AA8769",
"D. c #AF966C",
"F. c #B4946D",
"G. c #B8946E",
"H. c #BD9D6E",
"J. c #AB8A72",
"K. c #B38878",
"L. c #AF9577",
"P. c #B39374",
"I. c #BC9C74",
"U. c #BC9B7B",
"Y. c #B5947B",
"T. c #C19C75",
"R. c #C88B79",
"E. c #C3A476",
"W. c #C3A47B",
"Q. c #CBAD7D",
"!. c #C8A57F",
"~. c #D0AB7E",
"^. c #D2B47E",
"/. c #AF9483",
"(. c #BD9B80",
"). c #CF9A8A",
"_. c #C4A383",
"`. c #CCAB83",
"'. c #CBAC89",
"]. c #C5A487",
"[. c #D1AC83",
"{. c #CFB488",
"}. c #D4B586",
"|. c #D4B48A",
" X c #D9B28B",
".X c #DCBD8D",
"XX c #DDBC92",
"oX c #D5B390",
"OX c #CEB694",
"+X c #E1BC90",
"@X c #DEC08E",
"#X c #E7C58E",
"$X c #E4C595",
"%X c #EDCD97",
"&X c #E5C49B",
"*X c #ECCD9B",
"=X c #E8C494",
"-X c #F0CC99",
";X c #F4D59E",
":X c #EECCA1",
">X c #EBCDA9",
",X c #F2CDA1",
"<X c #F5D5A4",
"1X c #FCDDA3",
"2X c #F5D3A9",
"3X c #FDDDAB",
"4X c #F8D6A4",
"5X c #FDDDB0",
"6X c #FCE1AA",
/* pixels */
"F.V.H.`.{.{.U.i.( s 3 m w   v q X a n 9 * e Q -.f.P.W.`.Q.E.!.Q.Q.@X%X6X6X6X<X`.",
"U.W.`.{.|.`.P.M.%.j & c b $ n K   8 K f 6 w D O.7.C.F.`.}.|.`.`.}.@X%X;X6X<X-X X",
"`.W.E.W.E.I.C.k.=.I q q N , G o.i # x v e < 7 v ` e.N.(.`.oX X X{.{.@X*X<X%X&X}.",
"W.W.E.E.T.n.l.5.=./ f 7 n 1 g -...+ < n v a 6 6 B ] 7.Z.U.`.|. X}.}.@X$X#X@X{.`.",
"W.W.Q.Q.E.P.l.5.+.' c & x e + :.X.g X : c R x 1 7 n $.u.S.U.'. X{.|.`.`.`.'.W.U.",
"W.{.$X&X+X`.J.7.{ ' m 2 f v # e W 5   = 6 f K x 8 7 A +.p.S.D.W.`.`.E.E.H.G.F.I.",
"Q.$X3X4X3X.XT.a.*.` I t 1 c b - X X .   . @ z m k # s W =.t.l.C.V.D.P.P.Z.Z.S.P.",
"Q.*X=X~..X2X'.B.q.} ( C 8 % k n b p = . -   # y H z , f A / } *.>.6.p.s.s.s.B.P.",
"E.&X&XH.Q.6X XV.>.{ ] ] Q t 7 7 9 n n 7 @ a @ = e n f 6 6 q k b j E ( @.&.q.a.l.",
"D..X3X{.XX4X'.V.w.&.*.*.-.=.( T i + a R 6 l b X # f P n k e 0 0 + < r g U +.4.d.",
"M.W.&X<X2X@X(.l.5.5.q.e.s.g.g.p.%.Y 7 r n # 0 0   = 6 c T F n F a e & 7 C O.*.q.",
"0.Z.E..X XW.C.e.,.3.e.l.Z.U.].].L.u.o.f 0 n l 8 - : i h H L H H c x 7 & D [ *.*.",
"7.g.A.(.U.C.t.3.$.*.6.C.I.[.+X:X&XQ.Z.2.U 4 3 f y r u k x x F x H j 8 ; G ! *.*.",
"6.d.M.B.g.7.$._ ~ +.6.J._.XX:X5X$X<X>X|./.r.o.W W ! R u 6 y H F H v p 2 D Q &.3.",
"w.u.l.l.e.&.Q G J ' 6.A.[.-X5XQ.K.B.P.&X*XQ.V.b.g.B.B.3.L , x K x F e $ V ! $.3.",
"e.f.l.l.e.$.L Z V ( 4.A.}.4X|.V.d.7.h.G.5X$X[.U._.{._.A.;.r r F H K a < 1 F U } ",
"{ u.B.g.7.} I G C O.7.P.+X5X`.S.0.m.V.`.3X$X_._.I.'. XT.t.V q N M M c f < 6 z ! ",
"A %.u.N.a.*.] [ / *.B.].=X3X+XT.D.D.[.2X*X}.U.A.G.I.W.G.q.d q T h h H v f 9 , y ",
"2 P %.l.C.p.>.&.4.p.F.].$X<X;X$X{..X-X,X=XQ.A.l.f.l.C.u.#.s y K l ; y c L v s 7 ",
"< 7 Y >.p.l.d.d.g.A._.oX=X<X4X1X<X%X1X4X$X`.Y.a.5.4.,.{ K > x x - # - w x H F v ",
"c < 6 K +.<.d.c.D.'..X%X<X4X<X4X1X;X;X6X-X XP.p.&.{ ' I y 7 m 8 O o @ : e a v K ",
"m j i + 5 J ` t.B._.$X3X=X%X3X3X;X1X%X;X2X@X_.b.3.$._ Z # c 9 # E F = = ; w a v ",
"a n P h q # r ! 3.P.$X4X_._.$X3X6X;X%X*X1X#X'.G.d.3.' u 6 R > @.j.j...O = 6 7 e ",
"7 6 i j R c 1 r  .c.}.<XV.B.[.-X1X;X%X%X1X#X'.F.B.7.+.V 7 R O x.).R.;.# $ 0 e 9 ",
"9 6 8 7 a v v % A k.Q.3XA.g.E.&X;X1X3X6X<X=X'.G.l.d.-.J % K + 1.).K...  1 g n F ",
"n v w 6 6 a m 7 s q.E.<X_.S.`.*X3X<X<X,X%X+X'.A.z.w.<.Q 9 z r + ~ S + a K c c v ",
"7 b z < $ 0 K f 2 #.V.XX2X+X<X2X%X%X%X%X=XXX_.A.f.6.&.` v 3 x n a b v y 4 4 2 & ",
"6 a K 2 % 6 v a 4 W 0._.+X-X*X@XQ.@X.X$X$X X_.P.g.5.+.] L e # 6 @ 6 d W ' #.) j ",
"a 6 v r - 8 x x 2 c { z.P.[.[._.U.W.`.@XXX|.`.G.l.5.$.^ J Z G Q  .} m.F.T.G.l.` ",
"x 2 x f 6 8 x n i 2 B $.h.B.A.B.b.V.I.'.XX|.`.I.C.e.%.] / _ O.y.B.].%X6X3X:X].5.",
"P > a N r e l m v 1 7 n O.q.e.5.t.d.N.(.`. X`.H.Z.a.w.&.} &.5.C.E.$X&XF.S.OX&Xa.",
"o.1 7 n v y l a K f q 7 G Q } } } &.u.J.W. X`.`.U.V.z.w.q.e.l.Y. X3XI.8.| B.2XP.",
">.B + q c n f z 9 K h 2 ; b W ( ^ +.e.C.U.'.`.Q.W.G.B.p.7.7.g.Y.}.1XY.} ~ 3.+X'.",
"N.{ n 7 6 v K y 9 f M x 0 8 d J I ' >.l.V.I.E.`.W.I.J.g.d.7.p.A.Q.;X].4.~ &.`.+X",
"E.h.&.Y s & y R i 9 a m x q * e f g ( @.<.k.C.Y.P.U.P.c.d.e.d.c.E.$X+Xb.} 3.I.2X",
"{.F.c.e.X.v # y m i 8 a y H H k < , 1 t J O.6.l.P.I.P.B.l.h.d.g.H..X5XH.e.5.n.5X",
"|.I.Z.B.f.} g 1 x x - $ # @ 0 e v c a 6 7 v ] e.b.I.I.Z.b.p.d.c.F. X;XQ.M.p.E.2X",
"E.F.P.P.J.e...r 7 K w $ 6 n 0 o < c n r # f _ q.b.I.W.P.Z.b.B.A.I.XX;X#X_.U.*X&X",
"P.B.V.P.I.Z.q.Y 6 l m 2 @ N E 6 # a v f # e ~ -.B.U._.U.F.V.V.P.E.XX;X<X.X.X2XQ.",
"Z.b.S.U.`.E.J.*.n # x x = : c # @ c x y # a U q.b.I._.W.W.I.U.U.`.@X%X3X*X<X:XQ."
};
